<svg width="22" height="22" viewBox="0 0 22 22" fill="none" xmlns="http://www.w3.org/2000/svg">
<path d="M1.83331 8.24997C4.43463 6.16726 7.66763 5.03247 11 5.03247C14.3323 5.03247 17.5653 6.16726 20.1666 8.24997M4.58331 11.9166C6.38965 10.4265 8.65831 9.61148 11 9.61148C13.3416 9.61148 15.6103 10.4265 17.4166 11.9166M7.79165 15.125C8.72666 14.4535 9.84881 14.0923 11 14.0923C12.1511 14.0923 13.2733 14.4535 14.2083 15.125" stroke="#101828" stroke-width="1.55833" stroke-linecap="round" stroke-linejoin="round"/>
<path d="M11 19.25C11.5062 19.25 11.9166 18.8396 11.9166 18.3333C11.9166 17.827 11.5062 17.4166 11 17.4166C10.4937 17.4166 10.0833 17.827 10.0833 18.3333C10.0833 18.8396 10.4937 19.25 11 19.25Z" fill="#101828" stroke="#101828" stroke-width="1.55833" stroke-linecap="round" stroke-linejoin="round"/>
</svg>
